<svg width="108" height="51" viewBox="0 0 108 51" fill="none" xmlns="http://www.w3.org/2000/svg">
<path d="M24.1887 37.0043L18.1901 43.1574C18.0094 43.3428 18.0094 43.6435 18.1901 43.829L24.1887 49.982C24.3694 50.1675 24.6626 50.1675 24.8434 49.982L30.8419 43.829C31.0227 43.6435 31.0227 43.3428 30.8419 43.1574L24.8434 37.0043C24.6626 36.8188 24.3694 36.8188 24.1887 37.0043Z" fill="#3B54A3"/>
<path d="M24.189 19.6927L19.1779 24.8329C18.9971 25.0184 18.9971 25.319 19.1779 25.5045L24.189 30.6447C24.3698 30.8301 24.6629 30.8301 24.8437 30.6447L29.8547 25.5045C30.0355 25.319 30.0355 25.0184 29.8547 24.8329L24.8437 19.6927C24.6629 19.5073 24.3698 19.5073 24.189 19.6927Z" fill="#ED232A"/>
<path d="M16.382 29.0707L10.3835 35.2238C10.2027 35.4092 10.2027 35.7099 10.3835 35.8954L14.0602 39.6668C14.241 39.8523 14.5341 39.8523 14.7149 39.6668L20.7134 33.5137C20.8942 33.3283 20.8942 33.0276 20.7134 32.8422L17.0367 29.0707C16.8559 28.8852 16.5628 28.8852 16.382 29.0707Z" fill="#6ABB46"/>
<path d="M34.2902 10.6986L28.2917 16.8517C28.1109 17.0372 28.1109 17.3378 28.2917 17.5233L31.9684 21.2948C32.1492 21.4802 32.4423 21.4802 32.6231 21.2948L38.6216 15.1417C38.8024 14.9562 38.8024 14.6555 38.6216 14.4701L34.9449 10.6986C34.7641 10.5132 34.471 10.5132 34.2902 10.6986Z" fill="#6ABB46"/>
<path d="M42.072 18.6823L36.0734 24.8354C35.8927 25.0208 35.8927 25.3215 36.0734 25.5069L42.072 31.66C42.2527 31.8455 42.5459 31.8455 42.7267 31.66L48.7252 25.5069C48.906 25.3215 48.906 25.0208 48.7252 24.8354L42.7267 18.6823C42.5459 18.4968 42.2527 18.4968 42.072 18.6823Z" fill="#3B54A3"/>
<path d="M6.32586 18.6808L0.327349 24.8339C0.146559 25.0193 0.146561 25.32 0.327351 25.5055L6.32586 31.6586C6.50665 31.844 6.79977 31.844 6.98056 31.6586L12.9791 25.5055C13.1599 25.32 13.1599 25.0193 12.9791 24.8339L6.98056 18.6808C6.79977 18.4954 6.50665 18.4954 6.32586 18.6808Z" fill="#3B54A3"/>
<path d="M24.1877 0.335827L18.1892 6.48892C18.0084 6.67437 18.0084 6.97504 18.1892 7.16049L24.1877 13.3136C24.3685 13.499 24.6616 13.499 24.8424 13.3136L30.8409 7.16049C31.0217 6.97504 31.0217 6.67437 30.8409 6.48892L24.8424 0.335827C24.6616 0.150378 24.3685 0.150378 24.1877 0.335827Z" fill="#3B54A3"/>
<path d="M20.7502 16.8636L14.7517 10.7105C14.5709 10.5251 14.2778 10.5251 14.097 10.7105L10.4203 14.482C10.2395 14.6675 10.2395 14.9681 10.4203 15.1536L16.4188 21.3067C16.5996 21.4921 16.8927 21.4921 17.0735 21.3067L20.7502 17.5352C20.931 17.3498 20.931 17.0491 20.7502 16.8636Z" fill="#6ABB46"/>
<path d="M38.6213 35.1966L32.6228 29.0435C32.442 28.8581 32.1489 28.8581 31.9681 29.0435L28.2913 32.815C28.1106 33.0005 28.1106 33.3011 28.2913 33.4866L34.2899 39.6397C34.4706 39.8251 34.7638 39.8251 34.9446 39.6397L38.6213 35.8682C38.8021 35.6828 38.8021 35.3821 38.6213 35.1966Z" fill="#6ABB46"/>
<path d="M70.7268 4.14562C71.1377 4.14562 71.3247 4.3752 71.3247 4.75887V8.59715C71.3247 8.98082 71.1377 9.21197 70.7268 9.21197H66.3871V34.2355C66.3871 34.6585 66.2001 34.8503 65.7893 34.8503H61.8972C61.5232 34.8503 61.2994 34.6585 61.2994 34.2355V9.21197H56.9581C56.8777 9.21949 56.7966 9.20874 56.7206 9.18047C56.6446 9.15221 56.5757 9.10714 56.5186 9.04845C56.4615 8.98976 56.4178 8.9189 56.3904 8.8409C56.363 8.7629 56.3528 8.67968 56.3603 8.59715V4.75887C56.353 4.67646 56.3635 4.59342 56.3909 4.51562C56.4184 4.43781 56.4622 4.36716 56.5192 4.30865C56.5763 4.25014 56.6452 4.20521 56.721 4.17704C56.7969 4.14886 56.8778 4.13814 56.9581 4.14562H70.7268Z" fill="white"/>
<path d="M74.3203 4.75875C74.3203 4.37508 74.5073 4.14551 74.9182 4.14551H83.898C87.4237 4.14551 89.2862 6.1016 89.2862 9.71031V29.3279C89.2862 32.935 87.416 34.8549 83.898 34.8549H74.9182C74.5073 34.8549 74.3203 34.6631 74.3203 34.2401V4.75875ZM82.851 29.7839C83.8244 29.7839 84.3487 29.2838 84.3487 28.2476V10.7843C84.3487 9.74805 83.8244 9.21186 82.851 9.21186H79.4081V29.7839H82.851Z" fill="white"/>
<path d="M93.0278 4.75875C93.0278 4.37508 93.2149 4.14551 93.6272 4.14551H102.612C106.13 4.14551 108 6.1016 108 9.71031V29.3279C108 32.935 106.13 34.8549 102.612 34.8549H93.6272C93.2149 34.8549 93.0278 34.6631 93.0278 34.2401V4.75875ZM101.56 29.7839C102.532 29.7839 103.056 29.2838 103.056 28.2476V10.7843C103.056 9.74805 102.532 9.21186 101.56 9.21186H98.1171V29.7839H101.56Z" fill="white"/>
<path d="M61.7349 46.1733V37.885H62.069V45.8713H68.5548V46.1733H61.7349Z" fill="white" stroke="white"/>
<path d="M86.0103 46.1733L84.5908 43.4797H79.057L77.6253 46.1733H77.2236L81.6584 37.885H82.0707L86.3859 46.1733H86.0103ZM81.8714 38.1539L79.2042 43.1778H84.4299L81.8714 38.1539Z" fill="white" stroke="white"/>
<path d="M101.042 46.1733H96.5V37.885H101.232C102.133 37.885 102.861 38.0548 103.415 38.3945C104.028 38.7698 104.332 39.2939 104.327 39.9669C104.31 40.3604 104.158 40.7352 103.898 41.0251C103.524 41.4972 102.986 41.8025 102.397 41.8774C103.174 41.9592 103.768 42.2249 104.18 42.6746C104.337 42.8352 104.461 43.0258 104.546 43.2357C104.631 43.4456 104.675 43.6707 104.675 43.8979C104.675 44.6317 104.331 45.1999 103.643 45.6025C102.999 45.984 102.131 46.1743 101.042 46.1733ZM101.232 38.1743H96.8342V41.706H101.232C101.914 41.7292 102.59 41.571 103.194 41.2468C103.727 40.9387 103.992 40.5146 103.991 39.9748C103.996 39.695 103.924 39.4196 103.785 39.1791C103.645 38.9387 103.444 38.7427 103.202 38.613C102.706 38.3206 102.05 38.1743 101.232 38.1743ZM101.232 42.0095H96.8342V45.8713H101.189C102.118 45.8713 102.864 45.7062 103.427 45.376C104.026 45.029 104.326 44.5437 104.326 43.92C104.326 43.269 104.008 42.7784 103.374 42.4482C102.821 42.1557 102.107 42.0095 101.232 42.0095Z" fill="white" stroke="white"/>
</svg>
