<svg width="88" height="40" viewBox="0 0 88 40" fill="none" xmlns="http://www.w3.org/2000/svg">
<path d="M19.7091 29.3942L14.8214 34.2819C14.6741 34.4292 14.6741 34.668 14.8214 34.8153L19.7091 39.703C19.8564 39.8503 20.0953 39.8503 20.2426 39.703L25.1302 34.8153C25.2776 34.668 25.2776 34.4292 25.1302 34.2819L20.2426 29.3942C20.0953 29.2469 19.8564 29.2469 19.7091 29.3942Z" fill="white"/>
<path d="M19.7092 15.6429L15.6261 19.7259C15.4788 19.8733 15.4788 20.1121 15.6261 20.2594L19.7092 24.3425C19.8565 24.4898 20.0953 24.4898 20.2426 24.3425L24.3257 20.2594C24.473 20.1121 24.473 19.8733 24.3257 19.7259L20.2426 15.6429C20.0953 15.4956 19.8565 15.4956 19.7092 15.6429Z" fill="white"/>
<path d="M13.3478 23.0922L8.46009 27.9799C8.31278 28.1272 8.31278 28.366 8.46009 28.5133L11.4559 31.5092C11.6032 31.6565 11.8421 31.6565 11.9894 31.5092L16.8771 26.6215C17.0244 26.4742 17.0244 26.2353 16.8771 26.088L13.8812 23.0922C13.7339 22.9449 13.4951 22.9449 13.3478 23.0922Z" fill="white"/>
<path d="M27.9396 8.49842L23.0519 13.3861C22.9046 13.5334 22.9046 13.7723 23.0519 13.9196L26.0477 16.9154C26.195 17.0627 26.4339 17.0627 26.5812 16.9154L31.4689 12.0277C31.6162 11.8804 31.6162 11.6416 31.4689 11.4943L28.473 8.49842C28.3257 8.35111 28.0869 8.35111 27.9396 8.49842Z" fill="white"/>
<path d="M34.2814 14.8402L29.3937 19.7279C29.2464 19.8752 29.2464 20.114 29.3937 20.2614L34.2814 25.149C34.4287 25.2964 34.6675 25.2964 34.8148 25.149L39.7025 20.2614C39.8498 20.114 39.8498 19.8752 39.7025 19.7279L34.8148 14.8402C34.6675 14.6929 34.4287 14.6929 34.2814 14.8402Z" fill="white"/>
<path d="M5.15441 14.7321L0.266729 19.6197C0.119419 19.7671 0.119421 20.0059 0.266731 20.1532L5.15442 25.0409C5.30173 25.1882 5.54056 25.1882 5.68787 25.0409L10.5756 20.1532C10.7229 20.0059 10.7229 19.7671 10.5756 19.6197L5.68787 14.7321C5.54056 14.5848 5.30172 14.5848 5.15441 14.7321Z" fill="white"/>
<path d="M19.7091 0.266729L14.8214 5.15441C14.6741 5.30172 14.6741 5.54056 14.8214 5.68787L19.7091 10.5756C19.8564 10.7229 20.0952 10.7229 20.2426 10.5756L25.1302 5.68787C25.2776 5.54056 25.2776 5.30172 25.1302 5.15441L20.2426 0.266729C20.0952 0.119418 19.8564 0.119418 19.7091 0.266729Z" fill="white"/>
<path d="M16.9064 13.3956L12.0187 8.50794C11.8714 8.36063 11.6325 8.36063 11.4852 8.50794L8.48938 11.5038C8.34206 11.6511 8.34207 11.8899 8.48938 12.0372L13.3771 16.9249C13.5244 17.0722 13.7632 17.0722 13.9105 16.9249L16.9064 13.9291C17.0537 13.7818 17.0537 13.5429 16.9064 13.3956Z" fill="white"/>
<path d="M31.4689 27.9584L26.5812 23.0707C26.4339 22.9234 26.195 22.9234 26.0477 23.0707L23.0519 26.0665C22.9046 26.2138 22.9046 26.4527 23.0519 26.6L27.9396 31.4877C28.0869 31.635 28.3257 31.635 28.473 31.4877L31.4689 28.4918C31.6162 28.3445 31.6162 28.1057 31.4689 27.9584Z" fill="white"/>
<path d="M57.6299 3.29285C57.9646 3.29285 58.117 3.47521 58.117 3.77998V6.82891C58.117 7.13368 57.9646 7.31729 57.6299 7.31729H54.0939V27.1946C54.0939 27.5306 53.9415 27.683 53.6067 27.683H50.4354C50.1306 27.683 49.9483 27.5306 49.9483 27.1946V7.31729H46.411C46.3454 7.32326 46.2793 7.31471 46.2174 7.29227C46.1555 7.26982 46.0993 7.23401 46.0528 7.18739C46.0063 7.14077 45.9706 7.08448 45.9484 7.02253C45.9261 6.96057 45.9177 6.89447 45.9238 6.82891V3.77998C45.9179 3.71452 45.9264 3.64856 45.9488 3.58675C45.9712 3.52495 46.0069 3.46883 46.0533 3.42235C46.0998 3.37587 46.1559 3.34018 46.2177 3.31781C46.2795 3.29543 46.3455 3.28691 46.411 3.29285H57.6299Z" fill="white"/>
<path d="M60.5566 3.7801C60.5566 3.47533 60.709 3.29297 61.0438 3.29297H68.3607C71.2335 3.29297 72.7511 4.84678 72.7511 7.71335V23.2965C72.7511 26.1618 71.2273 27.6869 68.3607 27.6869H61.0438C60.709 27.6869 60.5566 27.5345 60.5566 27.1985V3.7801ZM67.5076 23.6587C68.3007 23.6587 68.7279 23.2615 68.7279 22.4384V8.56645C68.7279 7.74333 68.3007 7.3174 67.5076 7.3174H64.7022V23.6587H67.5076Z" fill="white"/>
<path d="M75.8008 3.7801C75.8008 3.47533 75.9532 3.29297 76.2892 3.29297H83.6098C86.4764 3.29297 88.0002 4.84678 88.0002 7.71335V23.2965C88.0002 26.1618 86.4764 27.6869 83.6098 27.6869H76.2892C75.9532 27.6869 75.8008 27.5345 75.8008 27.1985V3.7801ZM82.753 23.6587C83.5449 23.6587 83.9721 23.2615 83.9721 22.4384V8.56645C83.9721 7.74333 83.5449 7.3174 82.753 7.3174H79.9476V23.6587H82.753Z" fill="white"/>
<mask id="path-13-inside-1_7_550" fill="white">
<path d="M50.3027 36.6777V30.094H50.575V36.4379H55.8597V36.6777H50.3027Z"/>
</mask>
<path d="M50.3027 36.6777V30.094H50.575V36.4379H55.8597V36.6777H50.3027Z" fill="white"/>
<path d="M50.3027 36.6777H46.3027V40.6777H50.3027V36.6777ZM50.3027 30.094V26.094H46.3027V30.094H50.3027ZM50.575 30.094H54.575V26.094H50.575V30.094ZM50.575 36.4379H46.575V40.4379H50.575V36.4379ZM55.8597 36.4379H59.8597V32.4379H55.8597V36.4379ZM55.8597 36.6777V40.6777H59.8597V36.6777H55.8597ZM50.3027 36.6777H54.3027V30.094H50.3027H46.3027V36.6777H50.3027ZM50.3027 30.094V34.094H50.575V30.094V26.094H50.3027V30.094ZM50.575 30.094H46.575V36.4379H50.575H54.575V30.094H50.575ZM50.575 36.4379V40.4379H55.8597V36.4379V32.4379H50.575V36.4379ZM55.8597 36.4379H51.8597V36.6777H55.8597H59.8597V36.4379H55.8597ZM55.8597 36.6777V32.6777H50.3027V36.6777V40.6777H55.8597V36.6777Z" fill="white" mask="url(#path-13-inside-1_7_550)"/>
<mask id="path-15-inside-2_7_550" fill="white">
<path d="M70.0834 36.6777L68.9268 34.5381H64.4177L63.2511 36.6777H62.9238L66.5373 30.094H66.8733L70.3894 36.6777H70.0834ZM66.7109 30.3076L64.5376 34.2983H68.7956L66.7109 30.3076Z"/>
</mask>
<path d="M70.0834 36.6777L68.9268 34.5381H64.4177L63.2511 36.6777H62.9238L66.5373 30.094H66.8733L70.3894 36.6777H70.0834ZM66.7109 30.3076L64.5376 34.2983H68.7956L66.7109 30.3076Z" fill="white"/>
<path d="M70.0834 36.6777L66.5646 38.5799L67.6986 40.6777H70.0834V36.6777ZM68.9268 34.5381L72.4455 32.6359L71.3115 30.5381H68.9268V34.5381ZM64.4177 34.5381V30.5381H62.0427L60.9058 32.6233L64.4177 34.5381ZM63.2511 36.6777V40.6777H65.626L66.763 38.5926L63.2511 36.6777ZM62.9238 36.6777L59.4173 34.7531L56.1655 40.6777H62.9238V36.6777ZM66.5373 30.094V26.094H64.1699L63.0308 28.1694L66.5373 30.094ZM66.8733 30.094L70.4017 28.2097L69.2718 26.094H66.8733V30.094ZM70.3894 36.6777V40.6777H77.0603L73.9177 34.7934L70.3894 36.6777ZM66.7109 30.3076L70.2564 28.4555L66.7845 21.8092L63.1981 28.3945L66.7109 30.3076ZM64.5376 34.2983L61.0248 32.3852L57.8045 38.2983H64.5376V34.2983ZM68.7956 34.2983V38.2983H75.398L72.341 32.4462L68.7956 34.2983ZM70.0834 36.6777L73.6021 34.7756L72.4455 32.6359L68.9268 34.5381L65.408 36.4403L66.5646 38.5799L70.0834 36.6777ZM68.9268 34.5381V30.5381H64.4177V34.5381V38.5381H68.9268V34.5381ZM64.4177 34.5381L60.9058 32.6233L59.7392 34.7629L63.2511 36.6777L66.763 38.5926L67.9296 36.4529L64.4177 34.5381ZM63.2511 36.6777V32.6777H62.9238V36.6777V40.6777H63.2511V36.6777ZM62.9238 36.6777L66.4304 38.6023L70.0439 32.0186L66.5373 30.094L63.0308 28.1694L59.4173 34.7531L62.9238 36.6777ZM66.5373 30.094V34.094H66.8733V30.094V26.094H66.5373V30.094ZM66.8733 30.094L63.345 31.9783L66.861 38.5621L70.3894 36.6777L73.9177 34.7934L70.4017 28.2097L66.8733 30.094ZM70.3894 36.6777V32.6777H70.0834V36.6777V40.6777H70.3894V36.6777ZM66.7109 30.3076L63.1981 28.3945L61.0248 32.3852L64.5376 34.2983L68.0504 36.2114L70.2238 32.2207L66.7109 30.3076ZM64.5376 34.2983V38.2983H68.7956V34.2983V30.2983H64.5376V34.2983ZM68.7956 34.2983L72.341 32.4462L70.2564 28.4555L66.7109 30.3076L63.1655 32.1596L65.2502 36.1503L68.7956 34.2983Z" fill="white" mask="url(#path-15-inside-2_7_550)"/>
<mask id="path-17-inside-3_7_550" fill="white">
<path d="M82.3318 36.6777H78.6309V30.094H82.4867C83.2211 30.094 83.814 30.2289 84.2653 30.4987C84.7649 30.7968 85.0127 31.2131 85.0085 31.7477C84.9944 32.0603 84.8706 32.358 84.6588 32.5883C84.3537 32.9633 83.9156 33.2058 83.4359 33.2653C84.0688 33.3303 84.553 33.5414 84.8886 33.8986C85.0164 34.0261 85.1178 34.1776 85.187 34.3443C85.2562 34.5111 85.2919 34.6898 85.292 34.8703C85.292 35.4532 85.0118 35.9046 84.4514 36.2243C83.926 36.5274 83.2194 36.6786 82.3318 36.6777ZM82.4867 30.3238H78.9032V33.1292H82.4867C83.0421 33.1476 83.5929 33.022 84.0854 32.7645C84.5193 32.5196 84.7358 32.1828 84.735 31.754C84.7385 31.5318 84.6802 31.313 84.5666 31.122C84.453 30.931 84.2886 30.7753 84.0917 30.6723C83.6878 30.44 83.1528 30.3238 82.4867 30.3238ZM82.4867 33.3702H78.9032V36.4379H82.4517C83.2086 36.4379 83.8165 36.3068 84.2753 36.0445C84.7633 35.7688 85.0072 35.3833 85.0072 34.8878C85.0072 34.3707 84.7487 33.981 84.2316 33.7187C83.7811 33.4864 83.1995 33.3702 82.4867 33.3702Z"/>
</mask>
<path d="M82.3318 36.6777H78.6309V30.094H82.4867C83.2211 30.094 83.814 30.2289 84.2653 30.4987C84.7649 30.7968 85.0127 31.2131 85.0085 31.7477C84.9944 32.0603 84.8706 32.358 84.6588 32.5883C84.3537 32.9633 83.9156 33.2058 83.4359 33.2653C84.0688 33.3303 84.553 33.5414 84.8886 33.8986C85.0164 34.0261 85.1178 34.1776 85.187 34.3443C85.2562 34.5111 85.2919 34.6898 85.292 34.8703C85.292 35.4532 85.0118 35.9046 84.4514 36.2243C83.926 36.5274 83.2194 36.6786 82.3318 36.6777ZM82.4867 30.3238H78.9032V33.1292H82.4867C83.0421 33.1476 83.5929 33.022 84.0854 32.7645C84.5193 32.5196 84.7358 32.1828 84.735 31.754C84.7385 31.5318 84.6802 31.313 84.5666 31.122C84.453 30.931 84.2886 30.7753 84.0917 30.6723C83.6878 30.44 83.1528 30.3238 82.4867 30.3238ZM82.4867 33.3702H78.9032V36.4379H82.4517C83.2086 36.4379 83.8165 36.3068 84.2753 36.0445C84.7633 35.7688 85.0072 35.3833 85.0072 34.8878C85.0072 34.3707 84.7487 33.981 84.2316 33.7187C83.7811 33.4864 83.1995 33.3702 82.4867 33.3702Z" fill="white"/>
<path d="M82.3318 36.6777L82.3355 32.6777H82.3318V36.6777ZM78.6309 36.6777H74.6309V40.6777H78.6309V36.6777ZM78.6309 30.094V26.094H74.6309V30.094H78.6309ZM84.2653 30.4987L82.2129 33.932L82.2158 33.9337L84.2653 30.4987ZM85.0085 31.7477L89.0044 31.9276L89.0078 31.8533L89.0084 31.7789L85.0085 31.7477ZM84.6588 32.5883L81.7145 29.8808L81.6324 29.97L81.5558 30.0641L84.6588 32.5883ZM83.4359 33.2653L82.9437 29.2957L83.0276 37.2444L83.4359 33.2653ZM84.8886 33.8986L81.9732 36.6373L82.0174 36.6844L82.0631 36.73L84.8886 33.8986ZM85.292 34.8703H89.292L89.292 34.868L85.292 34.8703ZM84.4514 36.2243L82.4691 32.7501L82.4609 32.7548L82.4527 32.7595L84.4514 36.2243ZM78.9032 30.3238V26.3238H74.9032V30.3238H78.9032ZM78.9032 33.1292H74.9032V37.1292H78.9032V33.1292ZM82.4867 33.1292L82.6194 29.1314L82.553 29.1292H82.4867V33.1292ZM84.0854 32.7645L85.9388 36.3092L85.9955 36.2795L86.0513 36.2481L84.0854 32.7645ZM84.735 31.754L80.7355 31.6902L80.7349 31.726L80.735 31.7617L84.735 31.754ZM84.0917 30.6723L82.0971 34.1395L82.1668 34.1796L82.238 34.2169L84.0917 30.6723ZM78.9032 33.3702V29.3702H74.9032V33.3702H78.9032ZM78.9032 36.4379H74.9032V40.4379H78.9032V36.4379ZM84.2753 36.0445L82.3081 32.5617L82.2991 32.5667L82.2901 32.5719L84.2753 36.0445ZM84.2316 33.7187L82.3982 37.2738L82.4101 37.28L82.4221 37.286L84.2316 33.7187ZM82.3318 36.6777V32.6777H78.6309V36.6777V40.6777H82.3318V36.6777ZM78.6309 36.6777H82.6309V30.094H78.6309H74.6309V36.6777H78.6309ZM78.6309 30.094V34.094H82.4867V30.094V26.094H78.6309V30.094ZM82.4867 30.094V34.094C82.6147 34.094 82.6422 34.1063 82.5947 34.0955C82.5435 34.0838 82.4 34.0439 82.2129 33.932L84.2653 30.4987L86.3177 27.0654C85.0471 26.3058 83.6703 26.094 82.4867 26.094V30.094ZM84.2653 30.4987L82.2158 33.9337C82.0088 33.8102 81.6664 33.5473 81.3883 33.0799C81.1007 32.5965 81.0056 32.1019 81.0086 31.7166L85.0085 31.7477L89.0084 31.7789C89.0247 29.679 87.9031 28.0113 86.3149 27.0637L84.2653 30.4987ZM85.0085 31.7477L81.0125 31.5678C81.0408 30.9404 81.2893 30.3431 81.7145 29.8808L84.6588 32.5883L87.6031 35.2959C88.4519 34.3729 88.9481 33.1803 89.0044 31.9276L85.0085 31.7477ZM84.6588 32.5883L81.5558 30.0641C81.9021 29.6385 82.3993 29.3632 82.9437 29.2957L83.4359 33.2653L83.9282 37.2349C85.4319 37.0484 86.8054 36.2881 87.7617 35.1126L84.6588 32.5883ZM83.4359 33.2653L83.0276 37.2444C82.9941 37.241 82.473 37.1693 81.9732 36.6373L84.8886 33.8986L87.804 31.1599C86.6331 29.9134 85.1434 29.4196 83.8443 29.2862L83.4359 33.2653ZM84.8886 33.8986L82.0631 36.73C81.8189 36.4863 81.6251 36.1968 81.4927 35.8781L85.187 34.3443L88.8813 32.8106C88.6105 32.1583 88.2138 31.5659 87.714 31.0672L84.8886 33.8986ZM85.187 34.3443L81.4927 35.8781C81.3604 35.5594 81.2922 35.2177 81.292 34.8727L85.292 34.8703L89.292 34.868C89.2916 34.1619 89.152 33.4627 88.8813 32.8106L85.187 34.3443ZM85.292 34.8703H81.292C81.292 34.4912 81.3926 34.0048 81.6836 33.5362C81.9624 33.087 82.2942 32.8499 82.4691 32.7501L84.4514 36.2243L86.4338 39.6986C88.0799 38.7593 89.292 37.0667 89.292 34.8703H85.292ZM84.4514 36.2243L82.4527 32.7595C82.6131 32.667 82.7114 32.6491 82.6907 32.6535C82.6816 32.6554 82.6487 32.6618 82.5881 32.6675C82.5276 32.6732 82.4443 32.6778 82.3355 32.6777L82.3318 36.6777L82.328 40.6777C83.6142 40.6789 85.0975 40.4695 86.4502 39.6892L84.4514 36.2243ZM82.4867 30.3238V26.3238H78.9032V30.3238V34.3238H82.4867V30.3238ZM78.9032 30.3238H74.9032V33.1292H78.9032H82.9032V30.3238H78.9032ZM78.9032 33.1292V37.1292H82.4867V33.1292V29.1292H78.9032V33.1292ZM82.4867 33.1292L82.354 37.127C83.5995 37.1683 84.8344 36.8866 85.9388 36.3092L84.0854 32.7645L82.2321 29.2197C82.3514 29.1573 82.4848 29.1269 82.6194 29.1314L82.4867 33.1292ZM84.0854 32.7645L86.0513 36.2481C87.5003 35.4304 88.7391 33.881 88.7349 31.7462L84.735 31.754L80.735 31.7617C80.734 31.2637 80.8706 30.6908 81.2084 30.1654C81.5277 29.6685 81.9056 29.4016 82.1196 29.2808L84.0854 32.7645ZM84.735 31.754L88.7344 31.8177C88.7498 30.8543 88.4971 29.9056 88.0046 29.0774L84.5666 31.122L81.1286 33.1665C80.8633 32.7204 80.7272 32.2093 80.7355 31.6902L84.735 31.754ZM84.5666 31.122L88.0046 29.0774C87.5121 28.2493 86.7992 27.5743 85.9454 27.1277L84.0917 30.6723L82.238 34.2169C81.778 33.9763 81.394 33.6127 81.1286 33.1665L84.5666 31.122ZM84.0917 30.6723L86.0862 27.2051C84.8697 26.5053 83.5693 26.3238 82.4867 26.3238V30.3238V34.3238C82.5935 34.3238 82.6025 34.3337 82.5388 34.3199C82.4725 34.3055 82.3083 34.261 82.0971 34.1395L84.0917 30.6723ZM82.4867 33.3702V29.3702H78.9032V33.3702V37.3702H82.4867V33.3702ZM78.9032 33.3702H74.9032V36.4379H78.9032H82.9032V33.3702H78.9032ZM78.9032 36.4379V40.4379H82.4517V36.4379V32.4379H78.9032V36.4379ZM82.4517 36.4379V40.4379C83.6217 40.4379 84.9913 40.2426 86.2605 39.517L84.2753 36.0445L82.2901 32.5719C82.4729 32.4673 82.6038 32.4355 82.6317 32.4295C82.657 32.424 82.6053 32.4379 82.4517 32.4379V36.4379ZM84.2753 36.0445L86.2426 39.5273C87.7877 38.6545 89.0072 37.0406 89.0072 34.8878H85.0072H81.0072C81.0072 34.4459 81.1265 33.9116 81.4442 33.4096C81.7469 32.9313 82.107 32.6752 82.3081 32.5617L84.2753 36.0445ZM85.0072 34.8878H89.0072C89.0072 33.929 88.7561 32.9152 88.1464 31.9963C87.5536 31.1027 86.7699 30.5211 86.0411 30.1514L84.2316 33.7187L82.4221 37.286C82.2104 37.1786 81.8146 36.9231 81.4802 36.4191C81.1291 35.89 81.0072 35.3295 81.0072 34.8878H85.0072ZM84.2316 33.7187L86.065 30.1636C84.8647 29.5447 83.5937 29.3702 82.4867 29.3702V33.3702V37.3702C82.6308 37.3702 82.6867 37.3824 82.6741 37.3799C82.6599 37.3771 82.5548 37.3546 82.3982 37.2738L84.2316 33.7187Z" fill="white" mask="url(#path-17-inside-3_7_550)"/>
</svg>
