<?xml version="1.0" standalone="no"?>
<!DOCTYPE svg PUBLIC "-//W3C//DTD SVG 20010904//EN"
 "http://www.w3.org/TR/2001/REC-SVG-20010904/DTD/svg10.dtd">
<svg version="1.0" xmlns="http://www.w3.org/2000/svg"
 width="295.000000pt" height="280.000000pt" viewBox="0 0 295.000000 280.000000"
 preserveAspectRatio="xMidYMid meet">
<metadata>
Created by potrace 1.16, written by Peter Selinger 2001-2019
</metadata>
<g transform="translate(0.000000,280.000000) scale(0.100000,-0.100000)"
fill="#000000" stroke="none">
<path d="M294 2790 c-12 -5 -25 -13 -29 -19 -3 -6 -27 -11 -52 -11 -36 0 -46
-4 -50 -20 -5 -17 -14 -20 -63 -20 -51 0 -61 -3 -79 -26 -20 -26 -21 -38 -21
-380 0 -244 4 -361 11 -378 17 -36 61 -47 175 -45 111 1 137 10 132 42 -3 21
-8 22 -125 25 l-123 3 0 349 0 350 43 0 c31 0 45 -5 55 -20 11 -18 23 -20 153
-20 134 0 141 1 146 20 5 18 12 21 52 18 l46 -3 2 -154 c1 -84 4 -160 7 -168
4 -8 15 -13 28 -11 23 3 23 5 26 177 2 168 2 175 -20 198 -18 19 -32 23 -79
23 -48 0 -57 3 -62 20 -4 16 -14 20 -43 20 -20 0 -45 6 -53 14 -23 20 -53 26
-77 16z"/>
<path d="M2424 2785 c-10 -8 -36 -15 -56 -15 -24 0 -45 -7 -58 -20 -14 -14
-33 -20 -66 -20 -37 0 -51 -5 -75 -30 l-30 -29 3 -366 3 -367 24 -19 c21 -18
38 -19 155 -17 l131 3 0 25 0 25 -120 5 -120 5 -3 348 -2 347 45 0 c34 0 47
-5 55 -20 10 -18 21 -20 140 -20 136 0 160 4 160 26 0 10 14 14 50 14 l50 0 2
-167 3 -168 25 0 25 0 3 182 2 181 -26 21 c-20 15 -41 21 -80 21 -40 0 -54 4
-54 14 0 16 -21 26 -58 26 -15 0 -36 7 -46 15 -11 8 -29 15 -41 15 -12 0 -30
-7 -41 -15z"/>
<path d="M1242 2695 c-150 -27 -299 -84 -415 -158 -39 -25 -57 -43 -57 -57 0
-32 29 -36 69 -11 79 49 240 121 313 140 277 72 571 33 810 -106 62 -36 93
-41 102 -17 10 25 -17 49 -113 98 -105 53 -249 101 -354 115 -103 14 -264 13
-355 -4z"/>
<path d="M2299 2544 c-9 -11 -10 -20 -2 -32 9 -14 33 -17 159 -20 129 -2 150
0 161 14 9 12 9 22 2 35 -9 17 -24 19 -158 19 -123 0 -151 -3 -162 -16z"/>
<path d="M154 2535 c-4 -8 -4 -22 0 -30 5 -13 29 -15 163 -13 l158 3 0 25 0
25 -158 3 c-134 2 -158 0 -163 -13z"/>
<path d="M153 2354 c-15 -39 9 -49 118 -52 134 -4 151 1 147 36 l-3 27 -128 3
c-111 2 -128 0 -134 -14z"/>
<path d="M2294 2355 c-16 -39 0 -45 129 -45 99 0 127 3 137 15 10 12 10 18 0
30 -10 12 -38 15 -137 15 -101 0 -125 -3 -129 -15z"/>
<path d="M537 2250 c-105 -33 -166 -163 -123 -263 17 -39 71 -92 109 -106 101
-38 228 25 257 127 15 57 12 83 -16 140 -41 82 -145 129 -227 102z m144 -99
c33 -32 39 -45 39 -80 0 -81 -50 -133 -126 -135 -102 -2 -164 114 -107 201 22
34 61 52 112 53 37 0 49 -5 82 -39z"/>
<path d="M522 2138 c-17 -17 -15 -38 5 -60 15 -17 15 -19 -1 -37 -36 -39 4
-82 43 -47 17 15 21 15 49 -1 30 -17 32 -17 49 -1 16 17 16 19 -4 46 -21 29
-21 29 -2 49 37 37 -7 80 -45 44 -21 -19 -21 -19 -45 0 -27 22 -33 23 -49 7z"/>
<path d="M2649 2240 c-107 -57 -140 -191 -70 -287 38 -53 91 -78 163 -78 72 1
132 38 166 105 20 38 23 55 18 109 -4 51 -2 69 10 83 18 19 13 45 -12 55 -11
4 -40 -18 -95 -73 l-78 -78 -25 23 c-28 26 -59 25 -64 -3 -4 -21 64 -96 87
-96 9 0 37 21 63 47 l48 47 0 -32 c0 -45 -24 -89 -60 -107 -61 -32 -145 -9
-176 47 -21 37 -17 101 9 139 32 48 86 65 147 45 40 -13 46 -13 62 1 26 23 23
30 -22 53 -50 25 -123 25 -171 0z"/>
<path d="M325 1756 c-13 -9 -18 -35 -22 -126 -14 -308 95 -601 307 -823 98
-104 173 -161 200 -152 36 11 19 42 -60 108 -186 156 -311 364 -361 602 -14
66 -19 128 -18 230 0 77 0 145 0 151 -1 18 -27 24 -46 10z"/>
<path d="M1060 1721 c-13 -25 11 -51 46 -51 l24 0 0 -119 c0 -101 3 -120 16
-125 35 -14 44 12 44 130 l0 113 26 3 c31 3 50 28 41 52 -5 13 -22 16 -96 16
-79 0 -92 -2 -101 -19z"/>
<path d="M1333 1729 c-18 -18 -18 -280 -1 -297 25 -25 113 -7 156 32 77 69 68
184 -20 249 -33 24 -118 34 -135 16z"/>
<path d="M1597 1733 c-4 -3 -7 -73 -7 -154 l0 -149 25 -6 c34 -9 81 2 121 26
35 22 74 91 74 131 0 45 -42 112 -85 136 -38 22 -114 31 -128 16z"/>
<path d="M2506 1602 c-3 -4 -10 -56 -16 -115 -27 -269 -147 -511 -340 -690
-61 -57 -72 -71 -63 -85 20 -33 43 -24 120 50 189 182 306 408 343 664 6 43
10 102 8 129 -3 42 -6 50 -25 53 -11 2 -24 -1 -27 -6z"/>
<path d="M1521 756 c-16 -19 -27 -161 -12 -170 6 -4 43 -11 82 -15 55 -6 74
-4 85 7 8 7 14 17 14 21 0 16 -26 31 -53 31 -37 0 -26 17 27 41 142 64 297
-54 284 -216 -12 -149 -184 -236 -309 -157 -59 39 -124 110 -191 212 -67 102
-159 193 -223 220 -180 77 -379 -59 -378 -257 1 -108 54 -192 157 -246 59 -31
164 -30 228 1 66 33 138 99 138 127 0 41 -28 38 -83 -9 -79 -66 -110 -79 -183
-74 -82 5 -134 40 -170 115 -23 45 -26 62 -21 109 10 101 85 179 184 190 100
12 190 -53 301 -220 148 -222 272 -296 424 -252 150 43 233 218 175 368 -23
58 -108 139 -164 156 -68 20 -149 15 -205 -13 -60 -30 -62 -30 -55 -5 5 19
-15 50 -32 50 -5 0 -14 -6 -20 -14z"/>
</g>
</svg>
